<?xml version="1.0" standalone="no"?>
<!DOCTYPE svg PUBLIC "-//W3C//DTD SVG 1.1//EN" "http://www.w3.org/Graphics/SVG/1.1/DTD/svg11.dtd" >
<svg>
<metadata>
Created by FontForge 20120731 at Fri Jan 10 01:42:17 2014
 By root
Typeface (c) &#60;Alias, truth takes time&#62;. 2003. All Rights Reserved
</metadata>
<defs>
<font id="Alias" horiz-adv-x="1139" >
  <font-face 
    font-family="Alias"
    font-weight="400"
    font-stretch="normal"
    units-per-em="2048"
    panose-1="2 0 0 0 0 0 0 0 0 0"
    ascent="1638"
    descent="-410"
    x-height="1493"
    cap-height="1698"
    bbox="-280 -312 1348 1929"
    underline-thickness="150"
    underline-position="-142"
    unicode-range="U+0020-2014"
  />
<missing-glyph horiz-adv-x="1004" 
 />
    <glyph glyph-name=".notdef" unicode=" " horiz-adv-x="1004" 
 />
    <glyph glyph-name=".notdef" unicode="&#xa0;" horiz-adv-x="1004" 
 />
    <glyph glyph-name="exclam" unicode="!" horiz-adv-x="498" 
d="M16 1495h132l49 -16v-33q15 -20 17 -66l-20 -409l-14 -167v-229l-16 -16l30 -118l-17 -16q-54 -34 -108 15v49h17l-4 70q-13 20 -66 49l17 98v230l-17 17v263h-16v263zM90 202h45l90 -45v-112l-22 -22v22l-23 -22h23l-23 -23h-135l-22 23l-23 89l23 45z" />
    <glyph glyph-name="quotedbl" unicode="&#x22;" horiz-adv-x="727" 
d="M884 1485v-169h-16v-169l-17 -11v-148l17 -63q-53 -19 -66 -32l-4 -45h17v-31q-54 -32 -108 -10l-17 10l30 76l-16 10v148l-14 107l-20 263q2 30 17 42v22l49 10h132zM554 1485v-169h-16v-169l-17 -11v-148l17 -63q-53 -19 -66 -32l-4 -45h17v-31q-54 -32 -108 -10
l-17 10l30 76l-16 10v148l-14 107l-20 263q2 30 17 42v22l49 10h132z" />
    <glyph glyph-name="percent" unicode="%" horiz-adv-x="1229" 
d="M919 1512h95q20 -37 77 -57l19 -96l-38 -38l-39 -58l-19 -38l-19 -58l-19 -19q-52 -39 -77 -134l-57 -57q-23 -32 -57 -96l-19 -38q-27 -31 -58 -77q-16 -39 -57 -95l-19 -39q-27 -31 -58 -76q-22 -30 -76 -77l-39 -57l-19 -57q-83 -38 -115 -134l-57 -39
q-13 -43 -57 -95l-20 -58l-76 -19v19l-38 -19q-17 33 -77 77l38 57l19 19q13 44 58 96l19 57l57 39l20 38h38v19h76l19 19q-14 28 -19 77q8 44 77 76q-13 39 -19 115h19v38q68 21 115 134q58 53 95 153q27 31 58 77l76 115l20 76l76 115l19 38q27 32 58 77zM170 1504
q27 -7 101 -9l18 -8q39 -12 59 -59q10 -16 17 -17v-43h-9l13 -25v-26l-8 -8l17 -85v-17q4 -20 4 -43l4 -42v-17q-1 -14 0 -38v-93q-7 -18 -17 -39l-4 -16q-12 -15 -26 -26l9 8l-43 -42h-178l-51 25l-8 9l-17 26l-9 8q-3 20 -25 34v119l-8 8v145l8 33v60h-8v34h-9v34l9 8
q4 21 25 42l8 18l26 17l17 16h68q16 2 17 9zM161 1411l-25 -9q-7 -17 -26 -42l-8 -17v-382h42q17 -16 51 -17h34l9 8v-8l8 8l38 9v42l9 43v17l-9 8h9l-9 9l9 34v8v38v111l9 12q-5 19 -5 85l-17 34l-42 9h-77zM945 631h68l17 -16l25 -17l9 -18q21 -21 25 -42l9 -8v-34h-9v-34
h-8v-60l8 -33v-145l-8 -8v-119q-22 -14 -26 -34l-8 -8l-17 -26l-8 -9l-51 -25h-178l-43 42l9 -8q-14 11 -26 26l-4 16q-10 21 -17 39v93q1 24 0 38v17l4 42q0 23 4 43v17l17 85l-8 8v26l13 25h-9v43q7 1 17 17q20 47 59 59l17 8q75 2 102 9q1 -7 17 -9zM860 547l-42 -9
l-17 -34q0 -66 -5 -85l9 -12v-111v-38v-8l9 -34l-9 -9h9l-9 -8v-17l9 -43v-42l38 -9l8 -8v8l9 -8h34q34 1 51 17h42v382l-8 17q-19 25 -26 42l-25 9h-77z" />
    <glyph glyph-name="ampersand" unicode="&#x26;" horiz-adv-x="822" 
d="M244 1198h105l52 -52l17 -53q12 -22 70 -52l18 -17l17 -87h-17q-29 -102 -105 -157q-34 -22 -70 -70v-105h18l35 -52l34 -70l53 18l87 17l35 -17h-18l18 -18v18l17 -18v-69h-17l-18 -53v-52h-17v-87l35 -17h35q14 -25 17 -70q-36 -33 -105 -35h-104l-18 17h-104l-87 -17
h-35l-35 17h-18l-17 18v-18l-17 18h17l-17 17q-94 39 -105 157v262l17 52q42 34 53 122v35q-8 40 -53 87l18 87h17l18 87l-18 35v-17l-17 17h17l-17 17v-17l-18 17h18l-18 18v-18l18 53l70 35h122zM139 1041q3 -37 35 -87v-70q38 -17 105 -17l17 17v-17l18 17q7 29 35 105
v35h-18l-52 52h-105zM174 466v-52l-17 -87l52 -53v-17h70l17 87l-52 35l-17 52h-18v35h-35z" />
    <glyph glyph-name="parenleft" unicode="(" horiz-adv-x="364" 
d="M289 1753l217 45l13 -22h38q6 -41 0 -90h-51l-12 -22l-149 -40q-109 -103 -135 -190l-28 -101l-5 -129l-12 -44v-418l12 -66v-418l13 -22l20 -208l57 -87l61 -49l106 -45l78 -17h58q11 -43 25 -132h-13l-12 32l-51 -22l-127 35l-81 27q-48 16 -101 59l-130 159l-65 155
l13 22l-13 110v956l23 129l70 202l68 89l38 35z" />
    <glyph glyph-name="parenright" unicode=")" horiz-adv-x="360" 
d="M396 1686l38 -35l68 -89l70 -202l23 -129v-956l-13 -110l13 -22l-65 -155l-130 -159q-53 -43 -101 -59l-81 -27l-127 -35l-51 22l-12 -32h-13q14 89 25 132h58l78 17l106 45l61 49l57 87l20 208l13 22v418l12 66v418l-12 44l-5 129l-28 101q-26 87 -135 190l-149 40
l-12 22h-51q-6 49 0 90h38l13 22l217 -45z" />
    <glyph glyph-name="asterisk" unicode="*" horiz-adv-x="539" 
d="M3 1848h20l3 -3v-61l-10 -14q-5 -3 -3 -10l-3 4l13 -10l-3 -17v-7l10 -7v-7l-4 -13v-47q3 -5 4 -14v-33l3 -7l3 7q14 3 24 20l10 3q5 3 10 14l14 6v4h7l3 3q5 10 17 14q2 4 10 6l3 7h7q7 3 13 14h7l7 6l10 4q6 4 7 6q10 3 17 14q6 2 17 10l16 -3q4 -7 7 -7v-14l-3 -3
l-10 -3q-5 -3 -10 -14q-8 -1 -17 -10q-5 -3 -14 -3h-20v-20h-14l-3 -4h3l-3 -3v3q-3 -7 -7 -20q-11 -2 -23 -17q-13 -4 -20 -17q-7 -2 -17 -10l-4 -7q-13 -3 -20 -17l-7 -3l-3 -10h7q7 -10 23 -13q6 -5 7 -7q8 -2 17 -10l3 -4l17 -3l4 -7q5 -2 23 -10l14 -7l3 -6l10 -4
l7 -10l10 -7h7l3 -6q6 -4 17 -11l7 -3q5 -5 13 -10l10 -3l7 -14v-7q-5 -1 -10 -13h-10l-4 7h-10q-7 10 -23 13l-4 3q-2 8 -10 14l-3 17l-17 -4h-7l-3 11l-10 3l-7 -3h-7l-6 6h-7q-6 11 -20 14l-7 7l-7 3q-7 3 -17 10l-7 3h-6l-4 7l-20 7v-20h3v-51l4 -13v-68l-4 -10v-34
l-3 -13v-20q3 -5 3 -14l-10 -10h-20l-3 7v27h-3v23l3 7l3 10l10 7l-6 13h-7l3 7q0 5 4 14l-4 6h-6l-3 14l3 10v34l-3 3v51l-4 3v14l-10 -4l-3 -7l-10 -3v-3l-11 -7l-6 -3l-17 -17q-8 -2 -14 -10l-13 -7q-2 -4 -10 -7l-17 -17h-7l-3 -3l-14 -7l-20 -13l-7 -4q-10 -2 -17 -13
l-10 -4l-3 -6h-7v-4q-19 3 -27 21l4 3l10 7q2 4 10 6q4 6 17 17h6l4 4h20l3 -4l4 17v7h17l3 17l3 6q8 1 17 7v4l14 6v4q12 1 23 17q13 3 21 16q7 2 16 11q5 2 11 13l-14 3q-3 7 -13 10q-7 3 -17 11l-7 3q-4 5 -17 10l-13 7q-7 5 -10 7q-4 5 -17 10q-5 7 -21 13l-16 17
q-12 3 -17 14q-8 2 -17 10l-10 3q-6 9 -17 10l-4 17v7l11 10q6 -2 23 -10q7 -6 10 -7q25 -10 27 -37h17l4 3h3l7 -13h17l13 -7l10 -7q6 -4 14 -10q7 -3 16 -10l7 -3q8 -3 17 -10h7q3 -5 10 -7q9 -6 17 -7v71l-4 7v64q3 4 4 13v20l3 17v51z" />
    <glyph glyph-name="comma" unicode="," horiz-adv-x="607" 
d="M223 346h127q10 -53 84 -105q-97 -262 -217 -436l-42 -53l23 -9l-23 -44h-168l-42 53q121 135 199 196l8 106z" />
    <glyph glyph-name="period" unicode="." horiz-adv-x="484" 
d="M116 260h58l116 -58v-144l-29 -29v29l-29 -29h29l-29 -29h-174l-29 29l-29 115l29 58z" />
    <glyph glyph-name="zero" unicode="0" horiz-adv-x="1019" 
d="M396 1504q64 -17 237 -20l40 -20q91 -27 138 -138q23 -37 40 -40v-99h-20l30 -59v-59l-20 -20l40 -198v-40q10 -47 9 -99l10 -99v-39q-2 -34 0 -89v-218q-16 -40 -39 -89l-10 -39q-27 -33 -60 -60l20 20l-99 -99h-415l-119 59l-20 20l-39 60l-20 19q-8 47 -59 79v278
l-20 19v337l20 79v138h-20v80h-20v79l20 20q10 48 59 98l20 40l59 40l40 39h158q37 3 40 20zM376 1286l-59 -19q-17 -41 -60 -99l-20 -40v-891h99q40 -37 119 -39h79l20 20v-20l20 20l89 19v99l20 99v40l-20 20h20l-20 20l20 79v19v89v258l20 29q-11 43 -10 198l-40 80
l-99 19h-178z" />
    <glyph glyph-name="one" unicode="1" horiz-adv-x="904" 
d="M461 1492h124v-15h46l46 -47l15 -46q5 -53 46 -92v-154h16v-154l-16 -15l16 -77v-461l-16 -31q14 -19 16 -62v-92l-5 -82l11 -95l-31 -50l-52 -19l-91 16l-26 46q-9 58 -11 138v61l5 77q-10 32 -16 93h16q-12 22 -16 61v108l16 61l-16 16v477l-30 15l-77 15l-16 -15h-46
l-31 -31l-46 -15l-15 -16h15l-61 -15q-51 -55 -169 -61l-16 15h-31q-10 31 -15 92l15 31v-15l16 15l15 46l16 16v-16l15 16h-15l15 15q36 6 61 46h31q21 26 31 31l-15 -16l92 62q32 11 61 46q36 6 77 46l46 16v15z" />
    <glyph glyph-name="two" unicode="2" horiz-adv-x="819" 
d="M304 1491h130l58 -29q84 -2 131 -72q45 -42 58 -116l14 -15v-144l-29 -29l-29 -58l-14 -44l-15 -14h15l-15 -15q-12 -48 -58 -101l-14 -29q-12 -29 -44 -72l-29 -58q-11 -30 -43 -73l-29 -57v-29q-22 -12 -29 -44l-43 -29v-29q-49 -40 -73 -130l-14 -14q13 -36 58 -44
q4 -14 29 -29l43 -14h246l44 -29h29l14 -73v-14l-14 -29l-44 -29l-72 -15v-14h-464l-14 14q-76 35 -87 131v116h14v43l15 14l29 58q14 21 29 73l29 29l29 43l14 29l15 15l14 72l29 14v29q18 26 29 29l29 73l44 43q11 30 43 72l29 58q36 19 58 102l29 14q4 32 29 73v57l14 15
l-29 29l-29 43h-58l-14 15l-15 -15h-72l-29 -29h-29q-19 -17 -58 -58h-116q-3 15 -29 29v73l44 87l14 14l44 29l14 15q40 21 116 29h29v14z" />
    <glyph glyph-name="three" unicode="3" horiz-adv-x="999" 
d="M362 1492q69 -19 256 -21l43 -22h42l43 -64q16 -28 85 -64l43 -127l-21 -107l-22 -64v-170h22v-192q-18 -24 -22 -86v-106l22 -21v-86h21v-85q-34 -59 -43 -106q-79 -38 -128 -128h-42l-21 -22h-192v-21h-86l-64 21h-149l-21 43q-108 32 -128 149l43 21l106 22h43l21 -22
h235l85 22q84 95 85 277q-74 72 -234 85l-22 21h-213l-21 22h-43v21h-42q-24 40 -43 43v42l128 64l21 22h213l64 21l86 43h64l42 42v128l-21 21q-24 36 -43 107q-57 38 -170 43h-86q-58 -5 -170 -22l-107 22l-21 21v64l43 21l21 43q50 8 85 64h192z" />
    <glyph glyph-name="four" unicode="4" horiz-adv-x="770" 
d="M644 1492q66 -3 121 -45v-182q-8 -41 -15 -120h-15v-31q-38 -31 -46 -75l-15 -15l-30 -61l-15 -75h-15v-30l-15 -30l-15 -46v-45q-29 -30 -31 -91v-105q16 -26 31 -31q90 7 90 106q29 29 30 106l31 75l15 15l75 16l30 -16l30 -45l46 -45v-106h15v-121l30 -151v-30
l-15 -75l-15 -16q-15 -32 -15 -90l15 -15l-15 -30v-31q-33 -8 -61 -45h-60l-75 15v15h-31l-15 15q-10 31 -15 91l-15 15l-30 45l-76 15h-135q-26 35 -76 61l-15 15l-15 60v31l15 75v30l15 76q10 45 15.5 57.5t14.5 17.5v46l15 15v45q13 17 16 60v167l15 75q27 30 30 91
l60 120q30 37 45 91l16 30l15 76z" />
    <glyph glyph-name="five" unicode="5" horiz-adv-x="1054" 
d="M337 1498h85l107 -21h86l42 -43l91 28l21 -91l-16 -54q-31 -37 -106 -43h-64l-43 22h-235l-64 -22q-18 -43 -65 -107q-21 -45 -3 -93t137 -60l107 -10l203 -17l139 -69l54 -54q66 -114 101 -234l-8 -97l35 -132l-36 -63l15 -76l-38 -50q-30 -70 -65 -147
q-140 -8 -263 -33h-135l-232 -27l-85 90l15 81l125 10l270 16l173 42l43 65l54 117l-5 138l-44 125l-44 85q-43 38 -111 59l-75 10l-75 6l-108 -1l-239 27l-86 92l5 189l27 80l43 81l21 43l17 37q40 22 101 80h128v21z" />
    <glyph glyph-name="six" unicode="6" horiz-adv-x="1069" 
d="M398 1513q64 -18 239 -20h39q40 -33 60 -40q19 -44 80 -79v-60q-40 -32 -120 -40l-99 20h-199l-60 -20q-97 -87 -99 -239l20 -40q27 -19 99 -39l40 -20h40l39 -20h199l60 -40h40l40 -60l59 -59l20 -80l20 -20v-80l20 -20v-278l-20 -40l-20 -60l-79 -79q-28 -33 -60 -80
h-40q-24 -18 -79 -20h-299l-79 20h-40q-35 74 -120 119q-4 43 -39 100h-20v219l-20 80v338l20 60v159h-20v40q-13 86 -20 139l20 40v-20l20 20h-20l40 40h-20l20 20v-20l20 20h-20l20 20v-20l19 20h-19l19 19v-19l20 19h-20q34 20 40 40l60 40h179zM438 757
q-83 -9 -140 -100v-100l20 -19v19l-20 -99v-80l20 -20v-99l20 -40l60 -20h139l60 20q52 43 59 179v80l-19 20h19l-19 20l19 79l-39 80v40q-33 27 -40 40q-43 19 -119 19z" />
    <glyph glyph-name="seven" unicode="7" 
d="M110 -4l-92 28l-18 96l35 76l34 69l17 52l18 17h-18l18 17q14 58 69 121l17 35q14 35 52 86l34 69q14 35 52 86l35 69v35q26 14 34 52l52 34v35q58 48 86 155l18 18q-16 42 -69 51q-6 18 -35 35l-52 17h-293l-52 35h-35l-17 86v17l17 35l52 34l86 18v17h553l17 -17
q91 -41 104 -156v-138h-17v-52l-18 -17l-34 -69q-17 -24 -35 -86l-34 -35l-35 -52l-17 -34l-17 -18l-18 -86l-34 -17v-35q-22 -30 -35 -34l-34 -87l-52 -51q-14 -36 -52 -87l-34 -69q-43 -22 -69 -121l-35 -17q-5 -38 -34 -86l-18 -51l-41 -74z" />
    <glyph glyph-name="eight" unicode="8" horiz-adv-x="949" 
d="M394 1498q64 -17 237 -20l40 -19q90 -28 138 -138q22 -37 39 -40v-98h-20l31 -59v-60l-20 -19l-11 -197v-40q10 -47 10 -98l9 -99v-39q18 -24 20 -79v-217q-16 -40 -19 -99l-20 -39q-27 -32 -59 -59l20 20l-79 -99h-414l-118 59l-20 20l-20 59l-19 20q-8 46 -50 79v275
l-19 20v335l19 79v138h-19v79h-20v79l20 19q10 48 49 99l20 39l39 40l39 39h158q37 3 39 20zM375 1281l-59 -20q-17 -40 -30 -78l-19 -39v-119q9 -48 68 -59l40 -40h79l39 -19l40 19h19q33 22 99 40q36 37 39 118v79l-39 98l-99 20h-177zM434 749q-82 -8 -138 -99v-98
l20 -20v20l-20 -99v-78l20 -20v-99l19 -39l59 -20h139l59 20q52 42 59 177v79l-20 20h20l-20 19l20 79l-40 79v40q-32 27 -39 39q-42 20 -118 20z" />
    <glyph glyph-name="nine" unicode="9" 
d="M537 0q-64 18 -239 20h-39q-40 33 -60 40q-19 44 -80 79v60q40 32 120 40l99 -20h199l60 20q97 87 99 239l-20 40q-27 19 -99 39l-40 20h-40l-39 20h-199l-60 40h-40l-40 60l-59 60l-20 79l-20 20v80l-20 20v278l20 40l20 60l79 79q28 33 60 80h40q24 18 79 20h299
l79 -20h40q35 -74 120 -119q4 -43 39 -100h20v-219l20 -80v-338l-20 -60v-159h20v-40q13 -86 20 -139l-20 -40v20l-20 -20h20l-40 -40h20l-20 -20v20l-20 -20h20l-20 -20v20l-19 -20h19l-19 -19v19l-20 -19h20q-34 -20 -40 -40l-60 -40h-179zM497 757q83 8 140 99v100
l-20 19v-19l20 99v80l-20 20v99l-20 40l-60 20h-139l-60 -20q-52 -43 -59 -179v-80l19 -20h-19l19 -20l-19 -79l39 -80v-40q33 -27 40 -39q43 -20 119 -20z" />
    <glyph glyph-name="colon" unicode=":" horiz-adv-x="519" 
d="M101 510h58l116 -58v-144l-29 -29v29l-29 -29h29l-29 -29h-174l-29 29l-29 115l29 58zM106 1210h58l116 -58v-144l-29 -29v29l-29 -29h29l-29 -29h-174l-29 29l-29 115l29 58z" />
    <glyph glyph-name="semicolon" unicode=";" horiz-adv-x="595" 
d="M127 1203h58l116 -58v-144l-29 -29v29l-29 -29h29l-29 -29h-174l-29 29l-29 115l29 58zM87 464h127q10 -53 84 -105q-97 -263 -217 -436l-42 -53l23 -9l-23 -44h-167l-43 53q122 134 199 195l8 107z" />
    <glyph glyph-name="semicolon" unicode="&#x37e;" horiz-adv-x="595" 
d="M127 1203h58l116 -58v-144l-29 -29v29l-29 -29h29l-29 -29h-174l-29 29l-29 115l29 58zM87 464h127q10 -53 84 -105q-97 -263 -217 -436l-42 -53l23 -9l-23 -44h-167l-43 53q122 134 199 195l8 107z" />
    <glyph glyph-name="question" unicode="?" horiz-adv-x="906" 
d="M340 1501h140v-20h60l20 -20l40 -60l40 -20l20 -100v-300h-20v-40h-20v-60l-40 -20v-40q-33 -20 -45 -31.5t-15 -28.5l-60 -41l-15 -209l-26 -141l-43 -62l-42 7l-54 45l40 80l-60 20v220l-20 20v61q96 38 100 140l80 40q95 74 100 220v120l-20 20v20q-38 37 -120 40
l-60 -20v-100q-57 -21 -100 -100q-41 -49 -140 -60l-20 -20l-60 60l40 60v40l20 100l20 20v-20l20 20h-20l20 20v-20l20 20q67 105 200 120zM340 189h42l83 -42v-103l-21 -21v21l-21 -21h21l-21 -20h-125l-20 20l-21 83l21 41z" />
    <glyph glyph-name="A" unicode="A" horiz-adv-x="1366" 
d="M-37 1701h1172v-1899h-1172v1899zM428 1490q-73 -60 -79 -175l-32 -63v-32q-15 -34 -16 -95l-15 -48v-32l-16 -31l-16 -48v-48l-16 -63v-80l-16 -31v-48l-32 -48l-15 -16q-9 -43 -16 -127l-16 -47l-16 -32l-16 -48l-16 -32l-16 -63v-64q-21 -26 -31 -32v-31l-16 -16v-80
l31 -16l32 -47h80l15 16h-15l15 16l48 15l16 16h-16l16 16q28 43 32 127l15 80l16 16l96 63h79l16 16h63l32 -32h63l16 16q46 -26 64 -47l32 -16v-112l15 -47q8 -37 48 -64q3 -33 32 -79h111q35 41 47 79l32 16v48l-32 16v47h-15v127h-16v32l-16 16v-16l-16 16v64h-16
l-16 63h-16v96h-16v31h-15l-16 48v95l-16 16v48l-16 16l-16 79l-16 16l-16 79q-5 48 -15 96q-10 55 -64 95v95h-16v48h-16v32l-47 48v31l-16 16h-191zM492 966l48 -16h15l32 -64v-63l16 -64h16l32 -63v-48h15v-63q-15 -4 -31 -32h-48q-43 8 -127 16l-47 47v96h15l32 63v32
l16 16v95l16 16v32z" />
    <glyph glyph-name="B" unicode="B" horiz-adv-x="1223" 
d="M-38 1687h1028v-1877h-1028v1877zM246 1461l-126 -41v-1296h42v-83h543l42 41l42 209l42 84v84q-4 180 -42 250l42 209v460l-126 42v41h-250v42h-209v-42zM371 1252h251v-334h-42l-209 -42v376zM371 626h209v-376h-209l-42 125l42 125v126z" />
    <glyph glyph-name="C" unicode="C" horiz-adv-x="1072" 
d="M-65 1698h913v-1889h-913v1889zM300 1513q-72 -16 -113 -90l-23 -23l-68 -46l-23 -22l-23 -114v-975l23 -45q43 -131 205 -182h249l69 23q67 46 90 113q43 50 69 159q-28 14 -46 68l-23 23h-90l-23 -23h23l-23 -23v23l-23 -23h23l-23 -22v22l-23 -22v-91q-22 -6 -45 -45
h-91v-23h-45l-23 23l-91 45v454l23 22l-23 91v-45q15 68 46 181v91h-23v159q34 11 68 90h159l45 -22l23 -23q5 -48 46 -113h113l23 45v136h-23l-23 68l-22 23v-23l-23 23h23l-23 23v-23l-23 23h23l-23 22q-64 37 -181 46l-91 22h-46z" />
    <glyph glyph-name="D" unicode="D" horiz-adv-x="1178" 
d="M115 1702h1005v-1904h-1005v1904zM269 1465v-925l103 -34v-34l-103 -69v-377h548l103 69l34 34v788l35 103l-35 171v172l-34 34v-34l-34 34h34l-34 34v-34l-34 34h34l-34 34l-137 35h-309zM440 1328h206l103 -34v-34h68v-103l-68 -34v-411l34 -35v-342l-34 -35v-68
l-171 -34h-103v171h-35l35 68l-35 35l35 103v582z" />
    <glyph glyph-name="E" unicode="E" horiz-adv-x="1146" 
d="M187 1698h966v-1892h-966v1892zM438 1459l-26 -122v-334l-26 -152v-578h26l-26 -92h26v-121l26 -31h496l52 31l-26 121l-130 31l-131 -31h-104q-20 44 -26 122v213l-26 61l26 61l78 30h209l26 30v122l-130 31h-131l-52 30v426h104v30h183l52 31q-32 20 -52 91h-261
l-26 30z" />
    <glyph glyph-name="F" unicode="F" horiz-adv-x="1104" 
d="M5 1688h904v-1885h-904v1885zM223 1500q-25 -19 -78 -31l-15 -16v-202l-16 -63v-825l16 -32l-16 -31q14 -20 16 -62v-203l31 -31h140l47 31v359h-16v311l-15 32v93h280l78 16v31l31 15l-15 63v31l-16 15v-15l-15 15l-78 16h-234l-31 16v62h15v109l-15 16l15 62l16 31h358
l63 16h31v31l31 15l-16 63l-15 47l-47 15h-530z" />
    <glyph glyph-name="G" unicode="G" horiz-adv-x="1190" 
d="M0 1698h985v-1900h-985v1900zM404 1492q-36 -12 -68 -50q-35 -4 -84 -34l-33 -67l-51 -34l-17 -50v-152l-16 -50v-202l16 -17v-135l17 -50v-84l-17 -68h17q-15 -17 -17 -67v-202q19 -31 34 -33q17 -56 67 -85l68 -50l50 -34l50 -17h202l17 17q55 9 84 68l51 16v17
q28 45 50 135l17 34v454q-30 55 -118 67l-17 17v-17l-50 17l-17 -17h-118q-49 -33 -50 -118l34 -33q92 -4 134 -101q15 -22 17 -68v-151q-4 -103 -118 -135l-17 -33h-101v17h-33v33l-34 17l-17 67v236h17v84l-17 67v118l17 101v118l-17 168l34 17l34 67h134q55 -18 101 -84
l34 -17l84 -16l17 16v-16l33 33v-17l17 17h-17l17 17v84q-13 21 -67 51l-17 16q-27 75 -135 101h-100l-17 17h-84z" />
    <glyph glyph-name="H" unicode="H" horiz-adv-x="1169" 
d="M-15 1698h970v-1890h-970v1890zM176 1486l-63 -95q20 -65 31 -190v-31l-31 -159v-728l31 -158l32 -32l128 32q28 33 32 126v412q63 50 191 63l64 -31q25 -46 32 -127v-222l-32 -31l32 -64l-32 -63l32 -63l127 -32l64 32l32 95l-32 95v221l-32 32v222l32 95v158l-32 32
v285l32 31l-127 64l-64 -32v-253l-32 -32v-253h-128v-32h-63l-64 32v506l-32 32v32z" />
    <glyph glyph-name="I" unicode="I" horiz-adv-x="974" 
d="M-280 1698h775v-1900h-775v1900zM75 1467l-48 -33v-258l-16 -16v-161h-16v-517h16v-436l48 -48h145l17 48v307l-17 16v517l-48 48q16 52 32 81l-32 32q-32 18 -32 65q39 2 64 64l16 65v145h-16v81l-80 16h-17z" />
    <glyph glyph-name="J" unicode="J" horiz-adv-x="1079" 
d="M45 1692h885v-1894h-885v1894zM599 1501l-32 -159v-96q8 -76 80 -111l-16 -48l-16 -16l-32 -48q29 -23 32 -79l-48 -32v-143l16 -16l-16 -16v-287l-15 -32v-79l15 -48v-64l-47 -31h-207l-32 -16h-32v-32l-32 -16v-48h16l16 -63h32q18 -14 64 -16h318l48 16v15h32l15 16
v239l16 32v668l-16 64v143l-15 16v239h-16l-32 48h-96z" />
    <glyph glyph-name="K" unicode="K" horiz-adv-x="1224" 
d="M50 1702h1030v-1899h-1030v1899zM313 1569q-42 -85 -54 -267v-1232l27 -34v34l27 -34h-27l27 -33h109q50 63 54 200v366q76 -29 108 -100l27 -100q21 -48 27 -133l28 -100l54 -100l27 -33h108l27 33v133h-27l-27 134h-27q-21 133 -54 200l-27 166h-27l-55 133v234h28
q22 68 81 166l27 134l54 66v133l-27 34h-54q-30 -52 -109 -134l-27 -66l-27 -33v-100l-108 -67l-27 366l-27 34h-109z" />
    <glyph glyph-name="L" unicode="L" horiz-adv-x="1099" 
d="M-40 1698h901v-1895h-901v1895zM113 1428v-228l-14 -46l14 -31q-12 -20 -14 -60v-776h14v-244q40 -33 115 -45h460l43 15q26 31 29 106l-29 31v15h-57v15h-360l-14 31h-14v30l14 168l-14 15v319l14 15v305l14 30v335l-28 30h-144z" />
    <glyph glyph-name="M" unicode="M" horiz-adv-x="1349" 
d="M-30 1698h1153v-1900h-1153v1900zM187 1431l-66 -65v-175h22v-175l22 -66l-22 -65v-394h-22v-393l22 -88h110l21 44l22 109v328l22 88l66 -22v-44q0 -81 65 -153v-44h175l22 22q37 60 66 175l44 66q39 -32 43 -110v-153h22v-240l22 -44l44 -43h65l44 43v503l-22 109v459
l22 44v219h-22v43q-46 22 -131 22h-22l-22 -22v22l-22 -22q-40 -41 -43 -131v-22l-44 -109v-44l-22 -43v-44h-22l-22 -88v-43l-22 -66q-19 -61 -65 -87l-22 65l-44 66l-22 87l-21 22v88l-22 22v43l-22 88h-22v109l-44 44h22l-22 22v-22l-22 22h22l-22 21v-21l-22 21h22
l-22 22h-87z" />
    <glyph glyph-name="N" unicode="N" horiz-adv-x="1299" 
d="M-15 1698h1110v-1900h-1110v1900zM761 1483l-53 -35v-70l18 -18v-35l-18 -88v-212l-18 -17v-212l-17 -18l-53 36l-18 17v71h-17v35h-18v53h-18q-12 72 -53 106v35q-19 33 -35 35q-3 37 -35 88h-18v71l-17 17v-17q-6 35 -36 53q-7 39 -53 88l-88 17h-35v-88l-18 -53v-176
l-17 -70v-829l-18 -17v-177l35 -17l53 -35l18 -18l70 35q33 35 36 106v176h-18v124q16 18 18 70v123l17 18l18 71v17h53l35 -53l18 -53l17 -88h18v-35q5 -62 71 -141v-35l35 -53l18 -88h17v-35l18 -18v-53l35 -18v-35h35v-17h71l70 17v35h18l18 71v740l17 18v194l-17 70
q-1 77 -18 106v88l-18 53v-35q-4 72 -35 123h-88v-18z" />
    <glyph glyph-name="O" unicode="O" horiz-adv-x="1053" 
d="M-45 1692h865v-1894h-865v1894zM255 1482q-50 -18 -93 -92h-46l-47 -47v-139l-23 -23v-324l47 -139q23 -58 0 -93l-24 -69v-186l-46 -69l23 -47v-69h23v-46q110 -129 301 -139h70q230 24 278 278v996l-47 93q-102 113 -277 115h-139zM278 1297h185l69 -69v-927l-23 -70
l-23 -23v23l-23 -23h23l-23 -23h-185l-23 46v-23l-24 23h24l-24 23v-23l-23 23v116q20 31 23 93v487l24 69h-24l-23 93q21 24 23 139q24 6 47 46z" />
    <glyph glyph-name="P" unicode="P" horiz-adv-x="1204" 
d="M5 1692h1020v-1889h-1020v1889zM291 1501l-95 -64v-222l-32 -159q27 -41 32 -127v-223l-32 -31v-604l32 -64h127l32 32v477l32 31v64l31 32h287l63 63l96 32l32 32v604l-96 95l-127 32h-382zM418 1310q87 -17 255 -32q6 -86 32 -254q-27 -42 -32 -127l-32 -32l-159 -32
h-64l-31 128v317z" />
    <glyph glyph-name="Q" unicode="Q" horiz-adv-x="1310" 
d="M200 1692h1117v-1889h-1117v1889zM618 1540q-48 -13 -101 -78h-40l-41 -26q-37 -55 -40 -129l-41 -52v-130l20 -104l-20 -26l20 -78h21v-52l40 -52q-8 -73 -40 -207v-104l-41 -52l20 -130q64 -107 183 -130q40 -49 121 -52h121l81 26h81l46 -47h40q-5 -101 85 -130v26
q45 25 61 73l20 26l-20 78q-33 55 -90 130v987l-21 77q-48 45 -80 52q-44 70 -122 78l-81 26h-182zM594 1359h240l80 -52h53v-727l-17 -75l-90 -3l-26 -26l-44 -37l73 -82l-29 -37h-213l-80 26q-20 37 -26 104v130l26 77l-26 156l26 52v182l-26 104l26 156q27 6 53 52z" />
    <glyph glyph-name="R" unicode="R" horiz-adv-x="1121" 
d="M-115 1692h940v-1894h-940v1894zM230 1480q-33 -3 -72 -28h-28l-15 -15h-43q-43 -42 -43 -115v-130h-15v-734h15v-389l29 -15v-29q30 -14 86 -14l14 14v-14l15 14h-15l15 15l43 29v101l-14 72v403l57 29q64 -4 115 -44v-28l29 -29v-72l15 -15v-28l14 -72l15 -29l-15 14
l15 -43q18 -38 28 -58v-57l15 -15v-43l14 -14v-58h15v-29l14 -14v14l14 -14h-14l14 -15l72 -14h15l14 14v-14l29 29v-15l14 15h-14l43 14l15 44v43l-15 14v-14l-29 43q-3 39 -14 115l-29 43v72h-14q0 59 -29 101v58l-14 14l-15 72l15 29v-14l14 14h-14l14 15v-15l14 15h-14
l14 14v-14l15 14l14 43q37 26 43 72v187l-14 72v159l-14 14v29h-15v58q-17 52 -101 86q-31 14 -86 15l-43 14h-144v14h-44zM259 1308h173q25 -34 72 -58v-303l-14 -72l-15 -14h-28v-14h-73l-43 -15h-101v72l-14 15v28l14 87v115l15 72v29q7 38 14 58z" />
    <glyph glyph-name="S" unicode="S" horiz-adv-x="1119" 
d="M-95 1692h920v-1894h-920v1894zM302 1499l-48 -32q-54 -2 -95 -47v-16q-63 -9 -79 -79q-16 -4 -32 -32q-30 -30 -31 -95v-253l16 -47q6 -46 47 -80l32 -47q26 -41 79 -47l16 -32l31 -16h95v-16h80l15 -16h64q6 -36 47 -79v-31q14 -19 16 -64v-110l-16 -32l-16 -47
l-15 -16h15l-15 -16v16l-16 -16v-32l-64 -16h-31l-79 16v16h-32l-16 16h16l-16 16v-16l-16 32l-16 79h-15v31l-32 16l-79 16l-32 -16h16l-16 -16v16l-32 -31v15l-15 -15v-111l15 -79l32 -32l32 -47l47 -32h32q28 -40 79 -48l48 -15l79 -16l16 16h95l47 31l79 16l16 16h-16
l16 16q61 42 79 126q-14 19 -16 64v110l-15 16l-16 79v79l-16 16v127l-48 31l-15 16h15l-15 16q-49 60 -143 63l-79 16h-16l-47 48q-32 26 -48 31v111l-16 47l32 127l16 47l79 16l32 16l-16 -16l47 16h32v-16q24 -17 63 -63l32 -16l16 -31l47 -16l32 31v79l32 32
q-5 48 -48 111q-43 59 -127 79l-15 16h-206z" />
    <glyph glyph-name="T" unicode="T" horiz-adv-x="1084" 
d="M-10 1698h875v-1895h-875v1895zM134 1465h-28q-27 -28 -29 -87v-14l43 -29q39 -26 116 -29h43l43 -43q13 -18 15 -58v-737l14 -29v-332h15v-29l14 -14v14l15 -14v-29l72 -14h14l44 28l14 73v130l14 72l-14 29v476l-14 15v361l-15 29l15 29q12 34 43 43l58 14h72l29 29
l43 29v58q-35 35 -86 43h-203l-29 15h-303z" />
    <glyph glyph-name="U" unicode="U" horiz-adv-x="1309" 
d="M80 1692h1110v-1894h-1110v1894zM275 1483l-44 -131v-784l44 -43v-349l131 -130v43l43 -43h-43l43 -44h349v44l131 43l43 44q43 93 44 261l-44 218l44 218v653h-218v-174l-44 -218l44 -44v-653l-44 -87q-96 -83 -218 -87l-43 43v479l-44 131v-87l44 261v392l-44 44h-174z
" />
    <glyph glyph-name="V" unicode="V" horiz-adv-x="1249" 
d="M-5 1698h1016l24 -26v-1874h-1016l-24 27v1873zM204 1495l-69 -46l-24 -24v-186q40 -59 70 -93v-139l23 -47l-23 -23q37 -44 47 -140l23 -46v-93l23 -47v-69h23v-117l24 -23v-47h23v-162l23 -24l23 -93v-46l24 -23v23l23 -23h186l46 93v46q37 60 47 186v93l23 47v116h23
l24 163l23 70l23 116q15 70 23.5 89t23.5 27l23 186q9 38 23 47v139l-46 47h-117l-46 -47v-93l-23 -116l-47 -70v-46l-23 -47v-93h-23v-139l-24 -24v-46l-46 -23l-23 -24q-39 72 -47 163l-23 70l-23 23q-5 63 -24 186l-23 24q-15 257 -163 325z" />
    <glyph glyph-name="W" unicode="W" horiz-adv-x="1404" 
d="M-5 1702h1205v-1904h-1205v1904zM174 1489l-67 -67l22 -89v-112l22 -67l23 -112l22 -44l-22 22l22 -67l23 -45v-112l22 -111v-23q3 -42 22 -44v-246l23 -67v-202h22v-44l45 -23l111 -22h45q42 59 45 179h22v67h45l22 -90v-89l23 -22v22l22 -22h-22l22 -23v23l22 -23h-22
l22 -22l67 -22l45 22h22l23 22v-22l22 22q22 48 22 134v23l23 112v245l22 45l23 112v112l22 22v157l45 223v45l22 112q-40 72 -134 89l-45 -22l-22 -112q-19 -25 -23 -89v-179l-22 -112q-4 -88 -89 -90v90l-23 22v45l-44 22h22l-22 23v-23l-23 23h23l-112 22l-67 -45
q-22 -48 -23 -134l-22 -22h22l-67 22v90h-22v89h-22v246l-23 22v45h-22v45l-45 22h23l-23 22h-89z" />
    <glyph glyph-name="X" unicode="X" horiz-adv-x="1384" 
d="M45 1698h1189v-1895h-1189v1895zM1007 1463q-108 -29 -113 -100l-25 -26q-17 -8 -38 -50q-17 -20 -25 -25l-13 -63q-21 -13 -50 -76l-25 -12l-13 -25q-21 -26 -50 -63h-63q-12 28 -51 50v25l-25 25v26q-25 25 -38 88q-22 10 -62 37q-12 85 -63 101q-13 28 -51 50l-12 13
l-51 13h-38l-25 -13h-25l-38 -13v-37l13 -13v-50h13v-25h12v-51h13v-25l50 -25q12 -54 76 -63q9 -19 37 -25l13 -13q3 -34 13 -101l12 -37l13 -13l25 -38q14 -37 75 -75l13 -38q25 -21 38 -25l25 -51q-45 -13 -76 -88l-12 -12q-39 -13 -50 -63l-13 -13l-38 -25l-12 -38v-12
q-7 -34 -13 -101q-41 -8 -76 -50h-25q-23 -21 -50 -76h-25l-25 -75q-13 -27 -13 -76q-10 -17 -13 -50l63 -13h25v-12l51 12h25l13 13v-13l25 25v-12l12 12h-12l12 13v-13l13 13h-13l13 12v-12l13 12h-13l13 13h25q33 33 38 101l12 12q28 7 50 38q8 22 38 88l13 25l12 38
l26 13l25 38h75q9 -26 38 -63l13 -26l25 -12l13 -38h12l13 -38h12v-25l13 -38q27 -32 50 -50l25 -38l13 -12q2 -27 25 -63l38 -13h13q25 -24 75 -25h38l12 13v-13l13 13l38 12l-13 63v25h-12v51l-13 37l-25 26l-13 62h-12l-13 63h-12v26l-38 25q-12 48 -63 75v25l-25 26
l-26 37q-5 74 -75 114q-8 25 -13 75l13 25v-12l12 25l38 25l13 38q10 26 38 63l37 75l26 13l25 50q25 15 50 51v25l25 38q6 21 25 75q23 26 26 88l12 26l13 37v38q-12 11 -51 13l-62 12h-26z" />
    <glyph glyph-name="Y" unicode="Y" horiz-adv-x="1064" 
d="M-30 1688h860q9 -12 10 -39v-1836h-860q-8 12 -10 40v1835zM637 1467q-56 -16 -60 -78v-34h-9v-17h-8v-17l-9 -26q-12 -14 -17 -17v-26q-16 -17 -17 -52l-26 -77l-17 -69l-17 -51l-9 -17q-8 -12 -17 -43l-9 -17q-7 -16 -34 -26l-17 26l-17 8l-18 35q-1 23 -8 68l-9 9
l-8 69l-9 25l-8 9v43q-43 28 -43 94l-9 35q-2 46 -43 77v17q-15 17 -17 26l-26 26h-69v-9h-17v-8h-17q-7 -10 -9 -35v-43h9v-60l9 -8l8 -35v-60h9v-26l8 -17l26 -26v-34h9v-17l8 -9v9l9 -9h-9l9 -8v8l8 -8h-8l8 -9v9l9 -18l9 -8q32 -32 34 -86l9 -43v-52h8v-34l9 -34l8 -9
v-17l18 -17l8 -43h9v-17h8l9 -43h9q0 -40 34 -78v-17l17 -34l9 -43v-163l-9 -43v-215l9 -17l8 -9q27 -31 78 -34h43l17 9l-9 -9q14 17 17 26l26 17l9 77l-9 9v240h-9l9 60l-9 9v17l-17 9l-8 60h8v34h9v26h8q1 30 26 60v17l9 26l26 103l8 26l17 34q1 16 18 52v17q11 14 17 17
v17l17 26q8 19 9 52q16 16 17 60l17 51v43l8 26l9 17v43l9 77l8 9v52l9 17v34h-9v17q-24 14 -68 18h-18z" />
    <glyph glyph-name="Z" unicode="Z" horiz-adv-x="1154" 
d="M-45 1692h959v-1889h-959v1889zM73 1411l89 -45h398l-44 -88q-71 -128 -89 -310l-177 -266q-1 -81 -88 -266q-82 -84 -89 -265v-133q47 -38 177 -44h222v44h309v88l-132 45h-354v44q35 147 132 266q13 97 89 221l133 266q13 97 88 221v310h-619z" />
    <glyph glyph-name="bracketleft" unicode="[" horiz-adv-x="364" 
d="M89 1798h417l13 -22h38q6 -41 0 -90h-51l-12 -22h-304q-24 -33 -25 -240l12 -66v-154l-12 -44v-418l12 -66v-418l13 -22v-198l-13 -22l16 -164h326l13 -22h38q11 -43 25 -132h-13l-12 32l-51 -22h-392l-26 22q-23 1 -76 44v264l-25 110l13 22l-13 110v1056l13 44v352
l38 44h38v22z" />
    <glyph glyph-name="bracketright" unicode="]" horiz-adv-x="365" 
d="M506 1776h38l38 -44v-352l13 -44v-1056l-13 -110l13 -22l-25 -110v-264q-53 -43 -76 -44l-26 -22h-392l-51 22l-12 -32h-13q14 89 25 132h38l13 22h326l16 164l-13 22v198l13 22v418l12 66v418l-12 44v154l12 66q-1 207 -25 240h-304l-12 22h-51q-6 49 0 90h38l13 22h417
v-22z" />
    <glyph glyph-name="underscore" unicode="_" horiz-adv-x="1399" 
d="M378 -289h-339l-39 32v95l65 10h208l13 -10h274l26 -11l26 11h104l26 -32l65 11l13 10q23 -34 39 -42q36 2 53 11v21h26v10l39 11h130l13 -11h65l13 -21q-1 -54 -39 -84h-169q-38 -2 -52 -11h-118l-52 -11h-377z" />
    <glyph glyph-name="a" unicode="a" horiz-adv-x="1194" 
d="M400 1502h191q10 -52 64 -96v-32q31 -44 32 -128q4 -16 32 -32l16 -48v-32h16v-31l16 -80l16 -16v-64h16v-64h16v-32h16v-32l16 -48v-96h16l16 -64h16v-80l16 -16l32 -64v-64l32 -15l16 -48v-64l16 -64v-32l16 -16v16l16 -16h-16l16 -16v-32l-80 -80l-80 -16h-32
q-10 57 -64 96v48l-32 64v96l-48 32v16h-48v16l-32 -16h-48l-32 16l-79 15v-15h-80l-16 -16h-32l-16 -32l-48 -32l-16 -48v-96l-32 -64q-55 -79 -160 -80q-4 16 -32 32l-32 48l16 64v16q11 48 32 64h-16l16 16v32q10 48 32 96q0 29 32 95q16 35 16 96l16 48l16 64
q43 43 48 128v64l32 160l16 64q16 34 16 95l16 16q9 80 32 128v64l16 16v32q35 15 64 64zM431 905l-15 -44v-89l-15 -45q-24 -13 -45 -74v-74l15 -15v15l15 -15h-15l15 -15v15l15 -15h-15l15 -15h59l74 -15h30q29 23 30 75l-15 14v45h-15l-15 59l-29 30v59l-15 60h-15
l-15 44h-44z" />
    <glyph glyph-name="b" unicode="b" horiz-adv-x="874" 
d="M130 1512h86l130 -43h216q114 -65 173 -87v-432l-43 -216v-86h43v-346l-43 -216l-87 -43q-55 -37 -173 -43h-302l-130 86v1340zM256 1236v-383h213l43 42v341h-256zM256 597l-43 -213v-86l43 -42v-43h213v384h-213z" />
    <glyph glyph-name="c" unicode="c" horiz-adv-x="864" 
d="M259 1492h94l118 -23l94 -45q47 -37 71 -45q9 -53 70 -90v-159h-23l-118 -22q-12 98 -118 135v23h-164q-37 -26 -71 -113v-136h23v-113l-23 -45v-68l-24 -22l24 -68q-20 -30 -24 -91v-384l71 -45l71 -23l47 23h47l23 22v-22l24 22h-24l24 23v-23l24 23v68q47 84 164 90
q9 -53 71 -90l-47 -91v-45q-32 -36 -47 -45v-45l-71 -23l-47 -45h-306l-94 45q-22 51 -94 91v67q-21 29 -24 91v972q31 38 47 45l-23 -22l117 113l24 45l47 22h47v23z" />
    <glyph glyph-name="d" unicode="d" horiz-adv-x="869" 
d="M70 1498h383l104 -35l139 -104v-314h35v-70l-35 -139v-731q-76 -20 -139 -105h-487l-70 35v348l104 105l-104 35v940h70v35zM174 1324v-140h35v-661l-35 -105h35l-35 -70h35v-174h278l35 140v313l-35 139v349l70 35v104q-76 10 -174 70h-209z" />
    <glyph glyph-name="e" unicode="e" horiz-adv-x="865" 
d="M125 1499l94 -31h344v-63h62l-31 -62h-125q-85 -7 -250 -31v-438l156 -31h63l93 -31h63v-125l-156 -31h-63l-156 -31l-31 -94l31 -63v-281l31 -31h281v31h63v-31l94 -31h31l-31 -94v-31h-625l-32 156l-31 94v718h31v437l32 63h62v31z" />
    <glyph glyph-name="f" unicode="f" horiz-adv-x="899" 
d="M109 1492h513q22 -15 77 -31v-47l16 -46q-24 -12 -31 -47q-43 -3 -124 -15h-311l-31 -16l-16 -16v-77h16v-109l-16 -31v-31l31 -16h249l31 -15h31q37 -28 47 -109q-24 -12 -31 -47h-63v-15h-295v-62l16 -63v-310h15v-358q-15 -4 -31 -31h-155q-16 26 -31 31v249l-16 31
l16 31l-16 31v793l16 31v248l46 31h47v16z" />
    <glyph glyph-name="g" unicode="g" horiz-adv-x="855" 
d="M272 1498h103v-17h85l34 -17q30 -10 119 -51l17 -51q12 -23 68 -51v-102l-17 -17l-51 -17h-68l-51 34v17q-27 18 -68 68h-171l-34 -68q-30 -41 -34 -85h17l-17 -52l17 -34v-153l-17 -68v-170l17 -51v-68l-17 -85v-188l34 -51l17 -17v17l34 -51h86q28 17 34 34
q102 12 119 119v222q-20 79 -119 119l-69 34v68h18v34l85 17h85l17 17l17 -17l34 17l34 -17l17 -17v17l17 -17h-17l17 -17v17l17 -17h-17l17 -17v17l17 -17h-17l17 -17v17l17 -85v-392q-29 -46 -51 -136l-34 -68l-68 -34v-17h-34q-42 -30 -85 -34h-154q-39 12 -85 51l-68 34
q-16 32 -68 51l-17 51h-17l-17 102v154l17 51l-17 17l17 85v34q-3 46 -17 136v68q-15 21 -17 68v136q10 65 17 103v85l17 85q46 18 68 85l102 51q36 12 68 51z" />
    <glyph glyph-name="h" unicode="h" horiz-adv-x="954" 
d="M68 1500l137 -34l34 -136v-478l102 -34l171 34v239q30 36 34 136v171l68 68l137 -68l-34 -171v-102l34 -136v-137l-34 -102v-273l34 -102v-205h34v-68l-34 -68l-103 -34l-102 34l-34 102l34 69l-34 34l34 34v341l-68 34q-48 27 -137 34l-68 -68v34l-34 -34v-512
q-57 -68 -68 -102h-103q-15 65 -68 170v921l34 34v136l-34 137z" />
    <glyph glyph-name="i" unicode="i" horiz-adv-x="362" 
d="M76 1401h92l15 -15v-76l16 -16v-152l-31 -46v-30h-30q-13 -17 -16 -61l31 -15l30 -46h-15l-15 -76l30 -15q12 -22 16 -61v-76l-16 -15l16 -31v-335l15 -46v-243l-15 -46h-138l-46 46v365l-15 61v472l15 15v153l16 15v228z" />
    <glyph glyph-name="j" unicode="j" horiz-adv-x="724" 
d="M381 1492h96l15 -32v16l16 -16h-16l16 -16v16l16 -16v-222l16 -63v-143l16 -16v-667l-16 -31v-223l-16 -31l-32 -32l-63 -16h-334l-47 16q-45 35 -48 111q24 12 32 48h63l80 15h143l16 16l15 80l-15 16v95l15 32v317l16 16l-16 79v16q8 42 16 64l32 15l-16 80l-16 16
l48 47l16 48l-48 16l-16 79h-16v143q11 48 16 95z" />
    <glyph glyph-name="k" unicode="k" horiz-adv-x="895" 
d="M64 1501h127q25 -46 32 -128v-223l96 -32l127 255l96 64l32 64l95 -32v-128h-32v-64l-31 -31v31q-26 -97 -96 -191l-64 -128v-192h32l32 -127l64 -96q21 -65 32 -192q38 -57 63 -64l64 -127v-128l-159 -32q-18 70 -96 128q-24 127 -64 191q-22 96 -29 126t-34 34
q-29 47 -96 64v-447l-32 -64l-32 -32h-127q-8 32 -64 64v1277l32 32v96z" />
    <glyph glyph-name="l" unicode="l" horiz-adv-x="889" 
d="M47 1489h155q4 -16 31 -31v-326l-16 -31v-294l-15 -78v-279l15 -62v-93l-15 -78l31 -31h357l31 -15h62l15 -47h16l-16 -46v-47l-15 -15l-62 -16h-497q-22 15 -77 31l-31 16v248h-16v837l16 16l-16 31q14 15 16 62v201l15 31z" />
    <glyph glyph-name="m" unicode="m" horiz-adv-x="1084" 
d="M68 1502q202 -10 205 -319q37 -43 46 -136l23 -46l-23 23l23 -68h22v-46l69 -136q82 55 91 182v23l45 91l23 113l23 69v68l23 68l22 46q38 45 46 68h137v-23h45l23 -68v-159l-23 -114v-546h23v-524q-38 -45 -46 -68l-113 23l-23 136v160l-23 68v159l-23 68
q-35 -17 -45 -68q-55 -43 -69 -159l-45 -23v-23h-182l-46 91v69h-23v91l-68 22l-23 -113v-364l-23 -23v-46l-22 -45h-114l-23 23v432l23 45v342l23 114q-19 79 -23 113v160h-23v182z" />
    <glyph glyph-name="n" unicode="n" horiz-adv-x="979" 
d="M634 1498h88q28 -35 35 -106v-17l18 -88l17 -53v-71l18 -88v-123q-15 -57 -18 -212v-634l-35 -36v-35l-53 -17h-70l-35 17h-18l-35 71l-18 88l-17 17l-36 71l-17 88h-18l-17 53q-14 25 -18 70q-46 87 -53 159q-20 33 -35 35v36q-23 15 -70 17l-18 -88l-18 -18v-176
l-17 -17v-124l17 -17v-212l-17 -35l-18 -18v18l-18 -18h18l-53 -35q-36 14 -88 53q-33 40 -35 88v123l18 18v793q17 38 17 106v158h18v141h105l18 -35v18l18 -18h-18l53 -35q0 -42 53 -88v-35q12 -82 88 -141l17 -89h18v-35h18v-35l35 -71q14 -25 17 -70l18 -53l53 -18
l17 89v123q18 38 18 106v194l18 17l-18 141z" />
    <glyph glyph-name="o" unicode="o" horiz-adv-x="852" 
d="M234 1498h258l94 -47l23 -23l94 -141v-1030q-57 -237 -305 -257h-164l-47 23v24h-46l-24 47v-24l-23 24h23l-23 23v-23l-24 23h24l-24 23v-23l-23 23v47l-24 24v70h-23q41 63 47 187v70q23 33 47 117l-24 117h-23l-24 117v211l24 258q23 5 47 46q51 9 117 71zM276 1402
l-50 -50v-50l-25 -126l25 -50l25 -75l-25 -50v-575l-25 -76v-75l50 -25l25 -50h175l75 50l25 75v977l-25 25l-50 75h-200v0z" />
    <glyph glyph-name="p" unicode="p" horiz-adv-x="899" 
d="M127 1498h383l127 -64l96 -63v-606q-32 -8 -64 -64l-191 -64h-223q-57 -85 -64 -255v-350l-159 -32l-32 159v351l32 191v319l-32 32q28 103 32 382zM223 1179v-223l32 -127h223l32 95l32 160v63l-32 32v96h-128q-42 26 -127 32q-28 -34 -32 -128z" />
    <glyph glyph-name="q" unicode="q" horiz-adv-x="1204" 
d="M334 1478h253l76 -25l126 -26l101 -101q47 -68 51 -202l-20 -850q30 -50 101 -101l26 -51l45 -10q-38 -13 -86 -61l-20 -31l-26 -25q-39 28 -56 76l-35 5l-76 76l-157 -15l-25 -25h-278v25h-76l-25 26q-144 36 -203 177l-25 50l51 101v102q46 48 50 151l-25 51l25 -25
l-25 50v-25l-25 25h25l-25 26v-26l-51 152l25 25l-25 51v152q38 21 51 126l50 26q53 17 101 75l127 26v25zM334 1276v25l-51 -51q-25 -54 -25 -151l25 -26h-25l25 -25v-253l-25 -76v-50l25 -26l-25 -76v-227l50 -26l127 -25h126l35 41l-36 85q-22 60 57 97l96 -15l-25 172
v581h-25q-49 48 -152 51h-152z" />
    <glyph glyph-name="r" unicode="r" horiz-adv-x="889" 
d="M221 1498l44 -15h132l73 -14h30l44 -15l15 -15q65 -24 88 -103l15 -73l14 -15v-147l15 -58v-221l-59 -88q-18 -25 -29 -29l14 15q-42 -44 -44 -103l15 -30l-15 15l15 -29v14l29 -88v-29l15 -44l15 -15v-73l29 -30v-29l15 -73v-30h15v-29q25 -37 29 -59l-15 -29l-14 -15
h14l-14 -15h-30v-14l-44 -15h-59l-44 29l-29 44v74h-15l-15 117l-14 44l-15 15l-15 118l-14 44l-15 14v74l-29 29v30q-43 43 -118 44h-15l-44 -30v-455l15 -15v-117q-15 -4 -30 -30q-25 -14 -29 -29h-29l-74 15v29h-15q-11 21 -14 59v279q-2 63 -15 88v676q13 47 15 176v29
l14 74l15 14v-14l15 14h-15l15 15h29l59 29h74v15zM227 1220v-99l-14 -14v-114h-14v-113l14 -15v-56h114v14h99l43 28q14 31 14 85v284l-14 14v-14l-15 14h15l-15 14v-14l-14 14h14l-14 15v-15l-14 15h14l-14 14h-185q-12 -15 -14 -57z" />
    <glyph glyph-name="s" unicode="s" horiz-adv-x="843" 
d="M284 1498h189l15 -16q98 -21 142 -94l32 -16v-63l15 -16q-24 -12 -31 -47v-63l-63 -32l-32 47l-47 48q-11 20 -63 47h-63v-16h-79l-15 -16v-31q-46 -58 -48 -158v-16l16 -78v-32l16 -31l16 -16q40 -45 126 -48l31 -15q91 -3 142 -79q11 -21 63 -47v-111l16 -63v-110
q28 -39 31 -79v-110l16 -16q-7 -39 -47 -79v-32q-28 -6 -48 -31l-47 -32l-63 -15l-47 -16h-32l-78 -16h-32l-31 16q-54 12 -111 63l-31 16q-78 27 -110 126l-16 47v110l31 16l48 32l78 -16l32 -32l31 -63v-47l32 -16v-15h31l32 -32h94l16 16q69 29 95 126v173l-16 16
q-1 103 -110 111l-158 31h-31q-33 43 -111 63v32h-15q-48 43 -79 142q-12 22 -16 63v252l32 47v32h15l32 47q27 32 31 47l48 16q34 49 110 63z" />
    <glyph glyph-name="t" unicode="t" horiz-adv-x="780" 
d="M73 1492h278l73 -15h189q83 -7 88 -102l-15 -15l-43 -29q-22 -11 -59 -15l-73 -14h-29v-15h-29v-29h-15l15 -59v-365l14 -44v-483l15 -14l-15 -74v-160q-22 -8 -43 -59h-30l-73 15l-14 44h-15v29l-15 14v351q-12 20 -14 59v746h-15l-44 44h-87l-117 58v59h15v29l58 29v15
z" />
    <glyph glyph-name="u" unicode="u" horiz-adv-x="964" 
d="M44 1493h175l44 -44v-527l-44 -132l44 -175v-220l44 -175h176q81 83 88 263v571l-44 219l44 44h-44l44 44v132h219v-834l-44 -44v-88l44 -88v-88l-44 -219q-103 -17 -175 -132h-352q-40 98 -175 176v351h-44v790z" />
    <glyph glyph-name="v" unicode="v" horiz-adv-x="969" 
d="M94 1498l93 -47l47 -70v-94l23 -23q5 -64 24 -187l23 -24v-117l47 -47v-117l47 -46h-24l24 -24l47 24q40 64 46 187l24 117q7 51 47 117l46 164v117l24 23v-23l23 23h-23l23 24h117l24 -47q21 -29 23 -94q-23 -50 -23 -140q-9 -38 -24 -47v-47q-7 -51 -47 -117v-94
l-23 -70v-47l-23 -46l-24 -71v-70l-23 -70l-24 -47v-187l-23 -70v-47l-23 -24l-47 -93v-47h-211q-11 45 -47 117l-23 211l-47 93v117l-23 94l-24 117l-23 23v94l-23 23v-23l-24 164v117l-47 47h24l-24 23v-23l-23 234q51 13 94 70z" />
    <glyph glyph-name="w" unicode="w" horiz-adv-x="1005" 
d="M67 1502h90q88 -105 89 -269v-90l23 -89v-45l22 -23v-89h45l67 179q46 15 134 22l68 -67v-67h22v-90h67l23 68v134l22 22v180l22 45v89h23v45l89 23l68 -45l22 -68l-45 -224v-89l-22 -45v-180h-23v-179l-22 -45l-22 -112v-202l-23 -67v-134h-22v-45l-23 -23l-89 -22h-45
l-22 45l-68 45v112q-11 58 -67 67v-45q-29 -60 -44 -179l-23 -23h-157q-22 39 -44 45l-23 112v180l-22 45v179l-23 90v134l-22 112l-22 45l22 -22l-22 67l-23 45v112h-22l-23 201l-22 68z" />
    <glyph glyph-name="x" unicode="x" horiz-adv-x="1234" 
d="M918 1498h90v-13h39l13 -13l-13 -64v-26h-13l-13 -52v-39l-13 -25h-13v-26l-25 -52l-13 -52q-36 -23 -52 -77l-39 -26q-32 -23 -52 -90l-25 -52l-26 -26v-26q-29 -12 -52 -51l-13 -13v-52h13v-26h13l39 -38l26 -52v-26h12v-26h13v-26l26 -12q12 -50 65 -78v-26
q26 -22 39 -26l26 -51l12 -65l13 -13v-26h13l13 -38v-26h13v-52h13v-51l13 -13v-26q-18 -11 -52 -13l-64 -13l-65 26h-26l-26 13l-13 13h13l-13 13l-25 51l-13 13l-52 78l-13 13q-3 27 -26 64h-13q-9 50 -52 78q-13 38 -38 51v26l-65 13h-13l-39 -39h-13q-23 -27 -38 -90
q-21 -12 -39 -65v-26q-74 -23 -78 -116q-13 -3 -26 -26h-25q-41 -60 -117 -64l-39 -13l-51 26h-39q7 35 13 103h13v26l13 13l13 64q49 8 64 65l39 26q77 9 78 90l26 65v38q45 22 77 91l39 26q16 39 65 77l12 39l-38 26q-9 38 -52 64l-13 13l-52 78l-38 26v38h-13v52l-13 52
l-13 13q-23 35 -104 64q-7 26 -38 65l-26 13l-13 12v52h-13v26h-13v52h-13v51l65 13h25l13 13l52 -13h26q23 -29 65 -51q6 -20 51 -39l13 -52v-26q27 -32 65 -38l13 -65h13v-26h13v-26h13q2 -27 25 -64h13l26 -39h78l13 39l38 26l26 38v26q22 26 26 39q37 16 52 90
q20 7 39 52l26 13q7 23 38 90l13 13l52 13h26v13z" />
    <glyph glyph-name="y" unicode="y" horiz-adv-x="787" 
d="M610 1498h52v-9h17v-8h17v-17h9v-35l-9 -8v-69h-8v-52l-9 -17v-52l-8 -26l-9 -43l-17 -51v-43l-9 -9l-8 -43v-17l-18 -26l-17 -35q-2 -19 -17 -43l-9 -17l-8 -26l-9 -43l-8 -17v-17l-9 -17l-9 -9v-43q-9 -10 -17 -43l-8 -17v-18l-9 -17l-17 -26v-25q-8 -11 -9 -35l-8 -43
l17 -17h-9l9 -9v9l8 -9h-8l8 -8v8q3 -22 9 -34v-35l-9 -8l9 -17v-241l9 -44v-8l-9 -9h9l-18 -17h9l-9 -9v9l-8 -9h8l-8 -8v8l-9 -8h9l-9 -9v9l-8 -9h8l-8 -8v8l-9 -8h9l-43 -9h-43l-17 9l-26 17l-9 8h9l-9 9v-9q-8 15 -17 18v267l9 8v190h-9v25l-17 35q-6 18 -26 34v17
q-11 23 -17 35q-2 30 -35 69l-8 43l-9 8l-17 35v34l-9 35v51l-8 9v60l-17 26h-9l-9 26l-25 17l-18 26q0 18 -17 43v17q-18 23 -26 43l-8 9v60l-17 86q-1 16 -9 17v69l26 9q13 15 43 17h43l26 -26v-17h8q3 -20 26 -34v-18q14 -11 17 -17l-8 9l17 -26v-43l8 -9v-43l18 -17
l8 -26l9 -8v8l8 -8v-18l9 -43v-17h9v-43l8 -8v-18h9v-17q3 -73 51 -120l26 -9l17 34q18 18 26 61l17 25l9 26v9q5 26 17 52l9 17l8 26v25l9 9v35l8 25l26 52q3 19 17 43l9 17v35l9 17l8 43q33 4 60 43z" />
    <glyph glyph-name="z" unicode="z" horiz-adv-x="799" 
d="M44 1498h616v-176l-44 -132v-133q-108 -109 -132 -264q-88 -106 -132 -264l-44 -88l-88 -133v-88l220 -44h132q98 -13 132 -132h-132q-120 -9 -352 -44h-176l-44 44q2 288 132 441q28 132 88 264l88 220q71 123 88 221l88 88v88h-440l-44 88z" />
    <glyph glyph-name="bar" unicode="|" horiz-adv-x="381" 
d="M101 1798h53l42 -10l63 10l9 -23v-115l8 -23v-229q-14 -64 -17 -115h-18q-7 -25 -8 -91q6 -29 35 -69l-9 -23l-9 -115l26 -46v-160l-8 -69l8 -46v-413l9 -91v-413l-9 -69h-52q-20 5 -53 23l-43 -23h-44l-9 115v390h9v504l9 23l-9 46v183l26 46l-9 115l-8 23v-23l8 46
l27 46l-9 91h-18v46h-8v69q-8 28 -9 92v115l9 114v46zM77 31l8 -8z" />
    <glyph glyph-name="agrave" unicode="&#xe0;" horiz-adv-x="1180" 
d="M400 1502h191q10 -52 64 -96v-32q31 -44 32 -128q4 -16 32 -32l16 -48v-32h16v-31l16 -80l16 -16v-64h16v-64h16v-32h16v-32l16 -48v-96h16l16 -64h16v-80l16 -16l32 -64v-64l32 -15l16 -48v-64l16 -64v-32l16 -16v16l16 -16h-16l16 -16v-32l-80 -80l-80 -16h-32
q-10 57 -64 96v48l-32 64v96l-48 32v16h-48v16l-32 -16h-48l-32 16l-79 15v-15h-80l-16 -16h-32l-16 -32l-48 -32l-16 -48v-96l-32 -64q-55 -79 -160 -80q-4 16 -32 32l-32 48l16 64v16q11 48 32 64h-16l16 16v32q10 48 32 96q0 29 32 95q16 35 16 96l16 48l16 64
q43 43 48 128v64l32 160l16 64q16 34 16 95l16 16q9 80 32 128v64l16 16v32q35 15 64 64zM431 905l-15 -44v-89l-15 -45q-24 -13 -45 -74v-74l15 -15v15l15 -15h-15l15 -15v15l15 -15h-15l15 -15h59l74 -15h30q29 23 30 75l-15 14v45h-15l-15 59l-29 30v59l-15 60h-15
l-15 44h-44zM439 1894l-110 35q-88 -63 -187 -94q146 -82 260 -118l63 -67l52 -31l140 -29l111 26l60 34q-137 74 -188 62l-81 95z" />
    <glyph glyph-name="eacute" unicode="&#xe9;" horiz-adv-x="922" 
d="M125 1499l94 -31h344v-63h62l-31 -62h-125q-85 -7 -250 -31v-438l156 -31h63l93 -31h63v-125l-156 -31h-63l-156 -31l-31 -94l31 -63v-281l31 -31h281v31h63v-31l94 -31h31l-31 -94v-31h-625l-32 156l-31 94v718h31v437l32 63h62v31zM476 1869l110 35q87 -63 187 -94
q-147 -82 -260 -118l-63 -67l-53 -31l-140 -29l-111 26l-59 34q137 74 187 62l82 95z" />
    <glyph glyph-name="egrave" unicode="&#xe8;" horiz-adv-x="897" 
d="M125 1499l94 -31h344v-63h62l-31 -62h-125q-85 -7 -250 -31v-438l156 -31h63l93 -31h63v-125l-156 -31h-63l-156 -31l-31 -94l31 -63v-281l31 -31h281v31h63v-31l94 -31h31l-31 -94v-31h-625l-32 156l-31 94v718h31v437l32 63h62v31zM259 1884l-110 35q-88 -63 -187 -94
q146 -82 260 -118l63 -67l52 -31l140 -29l111 26l60 34q-137 74 -188 62l-81 95z" />
    <glyph glyph-name="elipsis" unicode="&#x2014;" horiz-adv-x="1529" 
d="M116 260h58l116 -58v-144l-29 -29v29l-29 -29h29l-29 -29h-174l-29 29l-29 115l29 58zM660 260h58l116 -58v-144l-29 -29v29l-29 -29h29l-29 -29h-174l-29 29l-29 115l29 58zM1174 260h58l116 -58v-144l-29 -29v29l-29 -29h29l-29 -29h-174l-29 29l-29 115l29 58z" />
    <glyph glyph-name="quotesingle" unicode="'" horiz-adv-x="746" 
d="M197 1474h106q8 -44 70 -87q-81 -218 -181 -362l-35 -44l20 -8l-20 -37h-139l-35 45q101 112 165 163l7 88z" />
    <glyph glyph-name="slash" unicode="/" horiz-adv-x="1129" 
d="M789 1398h82q17 -32 66 -49l16 -82l-33 -33l-33 -50l-16 -32l-17 -50l-16 -16q-44 -34 -66 -115l-49 -49q-20 -28 -49 -83l-17 -32q-22 -27 -49 -66q-14 -34 -49 -82l-17 -33q-22 -27 -49 -66q-19 -26 -66 -66l-33 -49l-16 -49q-72 -32 -99 -115l-49 -33q-11 -38 -49 -82
l-17 -50l-65 -16v16l-33 -16q-14 29 -66 66l33 49l16 16q11 38 50 83l16 49l49 33l17 33h33v16h65l17 16q-13 24 -17 66q6 39 66 66q-11 33 -16 98h16v33q59 18 99 115q50 46 82 132q22 27 49 66l66 98l16 66l66 98l16 33q23 27 50 66z" />
  </font>
</defs>
</svg>
